<svg xmlns="http://www.w3.org/2000/svg" xmlns:xlink="http://www.w3.org/1999/xlink" width="90" zoomAndPan="magnify" viewBox="0 0 112.5 112.499997" height="90" preserveAspectRatio="xMidYMid meet" version="1.0"><defs><g/><clipPath id="id1"><path d="M 0 0 L 112.003906 0 L 112.003906 112.003906 L 0 112.003906 Z M 0 0 " clip-rule="nonzero"/></clipPath><clipPath id="id2"><path d="M 3.757812 3.757812 L 108.757812 3.757812 L 108.757812 108.757812 L 3.757812 108.757812 Z M 3.757812 3.757812 " clip-rule="nonzero"/></clipPath></defs><g clip-path="url(#id1)"><path fill="#ffffff" d="M 0 0 L 112.5 0 L 112.5 120 L 0 120 Z M 0 0 " fill-opacity="1" fill-rule="nonzero"/><path fill="#ffffff" d="M 0 0 L 112.5 0 L 112.5 112.5 L 0 112.5 Z M 0 0 " fill-opacity="1" fill-rule="nonzero"/><path fill="#ffffff" d="M 0 0 L 112.5 0 L 112.5 112.5 L 0 112.5 Z M 0 0 " fill-opacity="1" fill-rule="nonzero"/><path fill="#ffffff" d="M 0 0 L 112.5 0 L 112.5 112.5 L 0 112.5 Z M 0 0 " fill-opacity="1" fill-rule="nonzero"/></g><g fill="#e17930" fill-opacity="1"><g transform="translate(19.661566, 74.465723)"><g><path d="M 35.671875 -38.859375 L 35.671875 0 L 18.90625 0 L 18.90625 -38.859375 L 1.75 -38.859375 L 1.75 -52.21875 L 52.75 -52.21875 L 52.75 -38.859375 Z M 35.671875 -38.859375 "/></g></g></g><g fill="#3272ba" fill-opacity="1"><g transform="translate(40.19871, 89.633224)"><g><path d="M 38.375 -49.625 C 40.875 -49.625 43.171875 -49.109375 45.265625 -48.078125 C 47.359375 -47.046875 49.015625 -45.59375 50.234375 -43.71875 C 51.460938 -41.84375 52.078125 -39.75 52.078125 -37.4375 C 52.078125 -31.332031 49.316406 -27.488281 43.796875 -25.90625 L 43.796875 -25.609375 C 50.085938 -24.171875 53.234375 -20.035156 53.234375 -13.203125 C 53.234375 -10.609375 52.597656 -8.3125 51.328125 -6.3125 C 50.054688 -4.3125 48.3125 -2.757812 46.09375 -1.65625 C 43.882812 -0.550781 41.457031 0 38.8125 0 L 5.34375 0 L 5.34375 -49.625 Z M 21.28125 -30.296875 L 32.25 -30.296875 C 33.300781 -30.296875 34.175781 -30.664062 34.875 -31.40625 C 35.570312 -32.15625 35.921875 -33.082031 35.921875 -34.1875 L 35.921875 -34.921875 C 35.921875 -35.972656 35.5625 -36.867188 34.84375 -37.609375 C 34.125 -38.359375 33.257812 -38.734375 32.25 -38.734375 L 21.28125 -38.734375 Z M 21.28125 -11.546875 L 33.40625 -11.546875 C 34.457031 -11.546875 35.332031 -11.914062 36.03125 -12.65625 C 36.726562 -13.40625 37.078125 -14.332031 37.078125 -15.4375 L 37.078125 -16.15625 C 37.078125 -17.257812 36.726562 -18.1875 36.03125 -18.9375 C 35.332031 -19.6875 34.457031 -20.0625 33.40625 -20.0625 L 21.28125 -20.0625 Z M 21.28125 -11.546875 "/></g></g></g><g clip-path="url(#id2)"><path fill="#e17930" d="M 27.640625 99.269531 C 27.46875 99.5 27.214844 99.640625 26.925781 99.640625 C 26.757812 99.640625 26.585938 99.585938 26.441406 99.5 C 26.269531 99.382812 26.128906 99.269531 25.957031 99.15625 C 25.554688 98.871094 25.46875 98.355469 25.757812 97.957031 C 26.042969 97.554688 26.554688 97.46875 26.957031 97.757812 C 27.097656 97.871094 27.269531 97.984375 27.414062 98.070312 C 27.8125 98.328125 27.925781 98.871094 27.640625 99.269531 Z M 22.183594 93.925781 C 21.839844 93.613281 21.296875 93.640625 20.984375 93.984375 C 20.671875 94.328125 20.699219 94.871094 21.042969 95.183594 C 21.183594 95.328125 21.328125 95.441406 21.46875 95.554688 C 21.640625 95.699219 21.839844 95.785156 22.042969 95.785156 C 22.269531 95.785156 22.527344 95.699219 22.671875 95.5 C 22.984375 95.15625 22.957031 94.613281 22.585938 94.296875 C 22.46875 94.15625 22.328125 94.042969 22.183594 93.925781 Z M 17.296875 21.070312 C 17.15625 21.214844 17.042969 21.355469 16.925781 21.5 C 16.613281 21.839844 16.640625 22.382812 17.011719 22.699219 C 17.183594 22.839844 17.382812 22.925781 17.585938 22.925781 C 17.8125 22.925781 18.070312 22.839844 18.214844 22.640625 C 18.328125 22.5 18.46875 22.355469 18.585938 22.214844 C 18.898438 21.871094 18.871094 21.328125 18.527344 21.011719 C 18.15625 20.671875 17.613281 20.699219 17.296875 21.070312 Z M 14.15625 84.671875 C 13.898438 84.269531 13.355469 84.183594 12.957031 84.441406 C 12.554688 84.699219 12.46875 85.242188 12.726562 85.640625 C 12.839844 85.8125 12.957031 85.957031 13.042969 86.128906 C 13.214844 86.355469 13.46875 86.5 13.757812 86.5 C 13.925781 86.5 14.097656 86.441406 14.242188 86.355469 C 14.640625 86.097656 14.726562 85.554688 14.46875 85.15625 C 14.382812 84.984375 14.269531 84.839844 14.15625 84.671875 Z M 14.527344 25.8125 C 14.128906 25.527344 13.613281 25.640625 13.328125 26.011719 C 13.214844 26.183594 13.097656 26.328125 12.984375 26.5 C 12.726562 26.898438 12.8125 27.414062 13.214844 27.699219 C 13.355469 27.8125 13.527344 27.839844 13.699219 27.839844 C 13.984375 27.839844 14.242188 27.699219 14.414062 27.46875 C 14.527344 27.328125 14.613281 27.15625 14.726562 27.011719 C 15.011719 26.613281 14.925781 26.070312 14.527344 25.8125 Z M 17.898438 89.527344 C 17.585938 89.15625 17.042969 89.128906 16.699219 89.441406 C 16.355469 89.757812 16.296875 90.296875 16.613281 90.640625 C 16.726562 90.785156 16.871094 90.925781 16.984375 91.070312 C 17.15625 91.269531 17.382812 91.355469 17.613281 91.355469 C 17.8125 91.355469 18.011719 91.296875 18.183594 91.128906 C 18.527344 90.8125 18.585938 90.269531 18.242188 89.925781 C 18.15625 89.8125 18.011719 89.671875 17.898438 89.527344 Z M 38.269531 103.757812 C 38.097656 103.699219 37.925781 103.613281 37.757812 103.554688 C 37.328125 103.382812 36.8125 103.613281 36.640625 104.042969 C 36.46875 104.46875 36.699219 104.984375 37.128906 105.15625 C 37.296875 105.214844 37.5 105.296875 37.671875 105.355469 C 37.757812 105.382812 37.871094 105.414062 37.984375 105.414062 C 38.328125 105.414062 38.671875 105.214844 38.785156 104.871094 C 38.957031 104.414062 38.726562 103.925781 38.269531 103.757812 Z M 38.097656 6.984375 C 37.925781 7.042969 37.726562 7.128906 37.554688 7.183594 C 37.128906 7.355469 36.898438 7.839844 37.070312 8.296875 C 37.214844 8.640625 37.527344 8.839844 37.871094 8.839844 C 37.984375 8.839844 38.070312 8.8125 38.183594 8.785156 C 38.355469 8.726562 38.527344 8.640625 38.699219 8.585938 C 39.15625 8.414062 39.382812 7.925781 39.214844 7.46875 C 39.042969 7.042969 38.554688 6.8125 38.097656 6.984375 Z M 44.183594 5.15625 C 43.984375 5.214844 43.8125 5.242188 43.613281 5.296875 C 43.15625 5.414062 42.871094 5.871094 42.984375 6.328125 C 43.070312 6.726562 43.441406 6.984375 43.8125 6.984375 C 43.871094 6.984375 43.957031 6.984375 44.011719 6.957031 C 44.183594 6.898438 44.382812 6.871094 44.554688 6.8125 C 45.011719 6.699219 45.296875 6.242188 45.183594 5.785156 C 45.070312 5.328125 44.640625 5.042969 44.183594 5.15625 Z M 32.699219 101.242188 C 32.527344 101.15625 32.355469 101.070312 32.214844 100.984375 C 31.785156 100.757812 31.269531 100.925781 31.042969 101.328125 C 30.8125 101.757812 30.984375 102.269531 31.382812 102.5 C 31.554688 102.585938 31.726562 102.671875 31.898438 102.785156 C 32.011719 102.839844 32.15625 102.871094 32.296875 102.871094 C 32.613281 102.871094 32.898438 102.699219 33.070312 102.414062 C 33.269531 101.984375 33.097656 101.46875 32.699219 101.242188 Z M 26.839844 12.757812 C 26.671875 12.871094 26.527344 12.984375 26.355469 13.070312 C 25.957031 13.328125 25.871094 13.871094 26.128906 14.269531 C 26.296875 14.5 26.554688 14.640625 26.839844 14.640625 C 27.011719 14.640625 27.183594 14.585938 27.328125 14.5 C 27.46875 14.382812 27.640625 14.296875 27.785156 14.183594 C 28.183594 13.925781 28.269531 13.382812 28.011719 12.984375 C 27.785156 12.585938 27.242188 12.5 26.839844 12.757812 Z M 32.296875 9.527344 C 32.128906 9.613281 31.957031 9.699219 31.785156 9.785156 C 31.355469 10.011719 31.214844 10.527344 31.414062 10.957031 C 31.554688 11.242188 31.871094 11.414062 32.183594 11.414062 C 32.328125 11.414062 32.46875 11.382812 32.585938 11.328125 C 32.757812 11.242188 32.925781 11.15625 33.070312 11.070312 C 33.5 10.839844 33.671875 10.328125 33.441406 9.925781 C 33.214844 9.527344 32.726562 9.296875 32.296875 9.527344 Z M 44.128906 105.585938 C 43.957031 105.527344 43.757812 105.5 43.585938 105.441406 C 43.128906 105.328125 42.671875 105.613281 42.527344 106.070312 C 42.414062 106.527344 42.699219 106.984375 43.15625 107.128906 C 43.355469 107.183594 43.527344 107.214844 43.726562 107.269531 C 43.785156 107.296875 43.871094 107.296875 43.925781 107.296875 C 44.296875 107.296875 44.671875 107.042969 44.757812 106.640625 C 44.871094 106.15625 44.585938 105.699219 44.128906 105.585938 Z M 5.871094 44.785156 C 5.925781 44.8125 6.011719 44.8125 6.070312 44.8125 C 6.46875 44.8125 6.8125 44.554688 6.898438 44.15625 C 6.957031 43.984375 6.984375 43.785156 7.042969 43.613281 C 7.15625 43.15625 6.871094 42.699219 6.414062 42.585938 C 5.957031 42.46875 5.5 42.757812 5.382812 43.214844 C 5.328125 43.414062 5.296875 43.585938 5.242188 43.785156 C 5.128906 44.214844 5.414062 44.671875 5.871094 44.785156 Z M 103.925781 38.757812 C 104.042969 39.097656 104.382812 39.328125 104.726562 39.328125 C 104.8125 39.328125 104.925781 39.296875 105.011719 39.269531 C 105.46875 39.097656 105.699219 38.613281 105.527344 38.183594 C 105.46875 38.011719 105.382812 37.8125 105.328125 37.640625 C 105.15625 37.214844 104.671875 36.984375 104.214844 37.15625 C 103.785156 37.328125 103.554688 37.8125 103.726562 38.269531 C 103.8125 38.414062 103.871094 38.585938 103.925781 38.757812 Z M 4.871094 50.925781 C 4.898438 50.925781 4.925781 50.925781 4.984375 50.925781 C 5.414062 50.925781 5.785156 50.613281 5.839844 50.183594 C 5.871094 50.011719 5.898438 49.8125 5.898438 49.640625 C 5.957031 49.183594 5.640625 48.757812 5.15625 48.671875 C 4.699219 48.613281 4.269531 48.925781 4.183594 49.414062 C 4.15625 49.613281 4.128906 49.785156 4.128906 49.984375 C 4.070312 50.46875 4.414062 50.871094 4.871094 50.925781 Z M 5.46875 56.296875 L 5.46875 56.242188 C 5.46875 56.070312 5.46875 55.898438 5.46875 55.757812 C 5.46875 55.269531 5.097656 54.898438 4.613281 54.898438 C 4.15625 54.898438 3.757812 55.269531 3.757812 55.757812 C 3.757812 55.925781 3.757812 56.097656 3.757812 56.269531 L 3.757812 56.328125 C 3.757812 56.8125 4.128906 57.183594 4.613281 57.183594 C 5.097656 57.183594 5.46875 56.785156 5.46875 56.296875 Z M 106.671875 50.097656 C 106.699219 50.269531 106.726562 50.46875 106.726562 50.640625 C 106.785156 51.070312 107.15625 51.414062 107.585938 51.414062 C 107.613281 51.414062 107.640625 51.414062 107.671875 51.414062 C 108.128906 51.355469 108.46875 50.925781 108.441406 50.46875 C 108.414062 50.269531 108.382812 50.097656 108.382812 49.898438 C 108.328125 49.441406 107.898438 49.097656 107.441406 49.15625 C 106.925781 49.214844 106.613281 49.640625 106.671875 50.097656 Z M 105.554688 44.070312 C 105.613281 44.242188 105.640625 44.441406 105.699219 44.613281 C 105.785156 45.011719 106.15625 45.269531 106.527344 45.269531 C 106.585938 45.269531 106.671875 45.269531 106.726562 45.242188 C 107.183594 45.128906 107.46875 44.671875 107.355469 44.214844 C 107.296875 44.011719 107.269531 43.839844 107.214844 43.640625 C 107.097656 43.183594 106.640625 42.898438 106.183594 43.011719 C 105.726562 43.15625 105.441406 43.613281 105.554688 44.070312 Z M 8.585938 73.785156 C 8.414062 73.328125 7.925781 73.097656 7.46875 73.269531 C 7.011719 73.441406 6.785156 73.925781 6.957031 74.382812 C 7.011719 74.554688 7.097656 74.757812 7.15625 74.925781 C 7.296875 75.269531 7.613281 75.46875 7.957031 75.46875 C 8.070312 75.46875 8.15625 75.441406 8.269531 75.414062 C 8.699219 75.242188 8.925781 74.757812 8.757812 74.296875 C 8.699219 74.128906 8.640625 73.957031 8.585938 73.785156 Z M 8.441406 36.671875 C 8.011719 36.5 7.5 36.726562 7.328125 37.15625 C 7.269531 37.328125 7.183594 37.527344 7.128906 37.699219 C 6.957031 38.128906 7.183594 38.640625 7.613281 38.8125 C 7.699219 38.839844 7.8125 38.871094 7.925781 38.871094 C 8.269531 38.871094 8.613281 38.671875 8.726562 38.328125 C 8.785156 38.15625 8.871094 37.984375 8.925781 37.8125 C 9.097656 37.328125 8.898438 36.839844 8.441406 36.671875 Z M 11.042969 79.414062 C 10.8125 78.984375 10.296875 78.8125 9.898438 79.042969 C 9.5 79.269531 9.296875 79.785156 9.527344 80.183594 C 9.613281 80.355469 9.699219 80.527344 9.785156 80.699219 C 9.925781 80.984375 10.242188 81.15625 10.554688 81.15625 C 10.699219 81.15625 10.8125 81.128906 10.957031 81.070312 C 11.382812 80.839844 11.527344 80.328125 11.328125 79.898438 C 11.214844 79.726562 11.128906 79.554688 11.042969 79.414062 Z M 5.839844 62.441406 C 5.8125 62.269531 5.785156 62.070312 5.785156 61.898438 C 5.726562 61.441406 5.296875 61.097656 4.839844 61.128906 C 4.382812 61.183594 4.042969 61.613281 4.070312 62.070312 C 4.097656 62.269531 4.128906 62.441406 4.128906 62.640625 C 4.183594 63.070312 4.554688 63.382812 4.984375 63.382812 C 5.011719 63.382812 5.042969 63.382812 5.097656 63.382812 C 5.554688 63.328125 5.898438 62.898438 5.839844 62.441406 Z M 11.15625 31.042969 C 10.726562 30.8125 10.214844 30.984375 9.984375 31.382812 C 9.898438 31.554688 9.8125 31.726562 9.699219 31.898438 C 9.46875 32.328125 9.640625 32.839844 10.070312 33.042969 C 10.183594 33.097656 10.328125 33.128906 10.46875 33.128906 C 10.785156 33.128906 11.070312 32.957031 11.242188 32.671875 C 11.328125 32.5 11.414062 32.328125 11.5 32.183594 C 11.726562 31.785156 11.585938 31.269531 11.15625 31.042969 Z M 6.957031 68.46875 C 6.898438 68.296875 6.871094 68.097656 6.8125 67.925781 C 6.699219 67.46875 6.242188 67.183594 5.785156 67.296875 C 5.328125 67.414062 5.042969 67.871094 5.15625 68.328125 C 5.214844 68.527344 5.242188 68.699219 5.296875 68.898438 C 5.382812 69.296875 5.757812 69.554688 6.128906 69.554688 C 6.183594 69.554688 6.269531 69.554688 6.328125 69.527344 C 6.785156 69.382812 7.070312 68.925781 6.957031 68.46875 Z M 21.8125 16.613281 C 21.671875 16.726562 21.527344 16.871094 21.382812 16.984375 C 21.042969 17.296875 21.011719 17.839844 21.328125 18.183594 C 21.5 18.382812 21.726562 18.46875 21.957031 18.46875 C 22.15625 18.46875 22.355469 18.414062 22.527344 18.242188 C 22.671875 18.128906 22.8125 17.984375 22.957031 17.871094 C 23.328125 17.554688 23.355469 17.011719 23.042969 16.671875 C 22.726562 16.355469 22.183594 16.296875 21.8125 16.613281 Z M 99.441406 26.414062 C 99.183594 26.011719 98.640625 25.925781 98.242188 26.183594 C 97.839844 26.441406 97.757812 26.984375 98.011719 27.382812 C 98.128906 27.527344 98.214844 27.699219 98.328125 27.839844 C 98.5 28.097656 98.757812 28.214844 99.042969 28.214844 C 99.214844 28.214844 99.382812 28.15625 99.527344 28.070312 C 99.925781 27.8125 100.011719 27.269531 99.757812 26.871094 C 99.671875 26.726562 99.554688 26.585938 99.441406 26.414062 Z M 99.242188 84.871094 C 98.839844 84.613281 98.328125 84.699219 98.042969 85.097656 C 97.925781 85.242188 97.839844 85.414062 97.726562 85.554688 C 97.441406 85.957031 97.554688 86.46875 97.925781 86.757812 C 98.070312 86.871094 98.242188 86.898438 98.414062 86.898438 C 98.671875 86.898438 98.957031 86.785156 99.128906 86.527344 C 99.242188 86.382812 99.355469 86.214844 99.46875 86.042969 C 99.726562 85.671875 99.640625 85.128906 99.242188 84.871094 Z M 94.269531 89.898438 C 94.15625 90.042969 94.011719 90.183594 93.898438 90.328125 C 93.585938 90.671875 93.613281 91.214844 93.957031 91.527344 C 94.128906 91.671875 94.328125 91.757812 94.527344 91.757812 C 94.757812 91.757812 94.984375 91.671875 95.15625 91.46875 C 95.296875 91.328125 95.414062 91.183594 95.554688 91.042969 C 95.871094 90.699219 95.839844 90.15625 95.46875 89.839844 C 95.128906 89.527344 94.585938 89.554688 94.269531 89.898438 Z M 95.527344 21.441406 C 95.214844 21.097656 94.671875 21.042969 94.328125 21.355469 C 93.984375 21.671875 93.925781 22.214844 94.242188 22.554688 C 94.355469 22.699219 94.5 22.839844 94.613281 22.984375 C 94.785156 23.183594 95.011719 23.269531 95.269531 23.269531 C 95.46875 23.269531 95.671875 23.214844 95.839844 23.070312 C 96.183594 22.757812 96.242188 22.214844 95.925781 21.871094 C 95.785156 21.726562 95.671875 21.585938 95.527344 21.441406 Z M 89.925781 94.242188 C 89.785156 94.355469 89.640625 94.5 89.5 94.613281 C 89.128906 94.925781 89.097656 95.46875 89.414062 95.8125 C 89.585938 96.011719 89.8125 96.097656 90.070312 96.097656 C 90.269531 96.097656 90.46875 96.042969 90.640625 95.898438 C 90.785156 95.785156 90.925781 95.640625 91.070312 95.527344 C 91.414062 95.214844 91.46875 94.671875 91.15625 94.328125 C 90.839844 93.957031 90.296875 93.925781 89.925781 94.242188 Z M 86.554688 13.382812 C 86.382812 13.269531 86.242188 13.15625 86.070312 13.042969 C 85.671875 12.785156 85.15625 12.871094 84.871094 13.269531 C 84.613281 13.671875 84.699219 14.183594 85.097656 14.46875 C 85.242188 14.585938 85.414062 14.671875 85.554688 14.785156 C 85.699219 14.898438 85.871094 14.957031 86.042969 14.957031 C 86.296875 14.957031 86.585938 14.839844 86.757812 14.585938 C 87.011719 14.183594 86.925781 13.640625 86.554688 13.382812 Z M 91.070312 16.957031 C 90.726562 16.640625 90.183594 16.671875 89.871094 17.042969 C 89.554688 17.382812 89.585938 17.925781 89.957031 18.242188 C 90.097656 18.355469 90.242188 18.5 90.382812 18.613281 C 90.554688 18.757812 90.757812 18.839844 90.957031 18.839844 C 91.183594 18.839844 91.414062 18.757812 91.585938 18.554688 C 91.898438 18.214844 91.871094 17.671875 91.527344 17.355469 C 91.355469 17.214844 91.214844 17.070312 91.070312 16.957031 Z M 107.613281 61.613281 C 107.15625 61.554688 106.726562 61.898438 106.671875 62.355469 C 106.640625 62.527344 106.613281 62.726562 106.613281 62.898438 C 106.554688 63.355469 106.871094 63.785156 107.355469 63.871094 C 107.382812 63.871094 107.441406 63.871094 107.46875 63.871094 C 107.898438 63.871094 108.269531 63.554688 108.328125 63.128906 C 108.355469 62.925781 108.382812 62.757812 108.414062 62.554688 C 108.414062 62.097656 108.097656 61.671875 107.613281 61.613281 Z M 106.613281 67.757812 C 106.15625 67.640625 105.699219 67.925781 105.585938 68.382812 C 105.527344 68.554688 105.5 68.757812 105.441406 68.925781 C 105.328125 69.382812 105.613281 69.839844 106.070312 69.984375 C 106.128906 70.011719 106.214844 70.011719 106.269531 70.011719 C 106.640625 70.011719 107.011719 69.757812 107.097656 69.355469 C 107.15625 69.15625 107.183594 68.984375 107.242188 68.785156 C 107.355469 68.328125 107.070312 67.871094 106.613281 67.757812 Z M 107.898438 55.382812 C 107.414062 55.382812 107.042969 55.785156 107.042969 56.242188 C 107.042969 56.414062 107.042969 56.613281 107.042969 56.785156 C 107.042969 57.269531 107.414062 57.640625 107.898438 57.640625 C 108.355469 57.640625 108.757812 57.269531 108.757812 56.785156 C 108.757812 56.613281 108.757812 56.414062 108.757812 56.214844 L 108.757812 56.183594 C 108.757812 55.757812 108.355469 55.382812 107.898438 55.382812 Z M 50.15625 106.671875 C 49.984375 106.640625 49.785156 106.613281 49.613281 106.613281 C 49.15625 106.554688 48.726562 106.871094 48.640625 107.355469 C 48.554688 107.839844 48.898438 108.242188 49.382812 108.328125 C 49.585938 108.355469 49.757812 108.382812 49.957031 108.414062 C 49.984375 108.414062 50.011719 108.414062 50.070312 108.414062 C 50.5 108.414062 50.871094 108.097656 50.925781 107.671875 C 50.984375 107.15625 50.640625 106.726562 50.15625 106.671875 Z M 104.871094 73.726562 C 104.441406 73.554688 103.925781 73.785156 103.757812 74.214844 C 103.699219 74.382812 103.613281 74.554688 103.554688 74.726562 C 103.382812 75.15625 103.613281 75.671875 104.042969 75.839844 C 104.15625 75.871094 104.242188 75.898438 104.355469 75.898438 C 104.699219 75.898438 105.011719 75.699219 105.15625 75.355469 C 105.214844 75.183594 105.296875 74.984375 105.355469 74.8125 C 105.527344 74.414062 105.296875 73.898438 104.871094 73.726562 Z M 102.382812 79.46875 C 101.957031 79.242188 101.441406 79.414062 101.214844 79.839844 C 101.128906 80.011719 101.042969 80.183594 100.957031 80.328125 C 100.726562 80.757812 100.898438 81.269531 101.296875 81.5 C 101.441406 81.554688 101.554688 81.613281 101.699219 81.613281 C 102.011719 81.613281 102.296875 81.441406 102.441406 81.15625 C 102.527344 80.984375 102.613281 80.8125 102.726562 80.640625 C 102.984375 80.214844 102.8125 79.699219 102.382812 79.46875 Z M 102.726562 31.839844 C 102.5 31.414062 101.984375 31.269531 101.554688 31.46875 C 101.128906 31.671875 100.984375 32.214844 101.183594 32.640625 C 101.269531 32.8125 101.355469 32.984375 101.441406 33.128906 C 101.585938 33.414062 101.898438 33.585938 102.214844 33.585938 C 102.355469 33.585938 102.46875 33.554688 102.613281 33.5 C 103.042969 33.269531 103.214844 32.757812 102.984375 32.355469 C 102.925781 32.183594 102.8125 32.011719 102.726562 31.839844 Z M 56.839844 3.757812 C 56.640625 3.757812 56.46875 3.757812 56.269531 3.757812 L 56.183594 3.757812 C 55.699219 3.757812 55.328125 4.128906 55.328125 4.613281 C 55.328125 5.097656 55.699219 5.46875 56.183594 5.46875 L 56.269531 5.46875 C 56.46875 5.46875 56.640625 5.46875 56.839844 5.46875 C 57.296875 5.46875 57.699219 5.097656 57.699219 4.613281 C 57.671875 4.15625 57.296875 3.757812 56.839844 3.757812 Z M 62.414062 106.671875 C 62.242188 106.699219 62.042969 106.726562 61.871094 106.726562 C 61.414062 106.785156 61.070312 107.214844 61.097656 107.671875 C 61.15625 108.097656 61.527344 108.441406 61.957031 108.441406 C 61.984375 108.441406 62.011719 108.441406 62.042969 108.441406 C 62.242188 108.414062 62.414062 108.382812 62.613281 108.382812 C 63.070312 108.328125 63.414062 107.898438 63.355469 107.441406 C 63.296875 106.925781 62.871094 106.613281 62.414062 106.671875 Z M 63.15625 4.214844 C 62.957031 4.183594 62.785156 4.15625 62.585938 4.128906 C 62.128906 4.070312 61.699219 4.414062 61.640625 4.871094 C 61.585938 5.328125 61.925781 5.757812 62.382812 5.8125 C 62.554688 5.839844 62.757812 5.871094 62.925781 5.871094 C 62.957031 5.871094 63.011719 5.871094 63.042969 5.871094 C 63.46875 5.871094 63.839844 5.554688 63.898438 5.128906 C 63.957031 4.699219 63.613281 4.269531 63.15625 4.214844 Z M 68.441406 105.554688 C 68.269531 105.613281 68.070312 105.640625 67.898438 105.699219 C 67.441406 105.8125 67.15625 106.269531 67.269531 106.726562 C 67.355469 107.128906 67.726562 107.382812 68.097656 107.382812 C 68.15625 107.382812 68.242188 107.382812 68.296875 107.355469 C 68.5 107.296875 68.671875 107.269531 68.871094 107.214844 C 69.328125 107.097656 69.613281 106.640625 69.5 106.183594 C 69.355469 105.726562 68.898438 105.441406 68.441406 105.554688 Z M 56.296875 107.042969 L 56.269531 107.042969 C 56.097656 107.042969 55.925781 107.042969 55.757812 107.042969 C 55.296875 107.042969 54.898438 107.414062 54.898438 107.898438 C 54.898438 108.382812 55.269531 108.757812 55.757812 108.757812 C 55.925781 108.757812 56.128906 108.757812 56.296875 108.757812 L 56.328125 108.757812 C 56.8125 108.757812 57.183594 108.382812 57.183594 107.898438 C 57.183594 107.414062 56.757812 107.042969 56.296875 107.042969 Z M 50.414062 4.070312 C 50.214844 4.097656 50.042969 4.128906 49.839844 4.128906 C 49.382812 4.183594 49.042969 4.613281 49.097656 5.070312 C 49.15625 5.5 49.527344 5.8125 49.957031 5.8125 C 49.984375 5.8125 50.011719 5.8125 50.070312 5.8125 C 50.242188 5.785156 50.441406 5.757812 50.613281 5.757812 C 51.070312 5.699219 51.414062 5.269531 51.382812 4.8125 C 51.296875 4.355469 50.898438 4.011719 50.414062 4.070312 Z M 69.382812 5.414062 C 69.183594 5.355469 69.011719 5.328125 68.8125 5.269531 C 68.355469 5.15625 67.898438 5.441406 67.785156 5.898438 C 67.671875 6.355469 67.957031 6.8125 68.414062 6.925781 C 68.585938 6.984375 68.785156 7.011719 68.957031 7.070312 C 69.042969 7.097656 69.097656 7.097656 69.183594 7.097656 C 69.554688 7.097656 69.925781 6.839844 70.011719 6.441406 C 70.097656 5.984375 69.839844 5.527344 69.382812 5.414062 Z M 79.871094 101.214844 C 79.699219 101.296875 79.527344 101.382812 79.382812 101.46875 C 78.957031 101.699219 78.785156 102.214844 79.011719 102.613281 C 79.15625 102.898438 79.46875 103.070312 79.785156 103.070312 C 79.925781 103.070312 80.042969 103.042969 80.183594 102.984375 C 80.355469 102.898438 80.527344 102.8125 80.699219 102.726562 C 81.128906 102.5 81.269531 101.984375 81.070312 101.554688 C 80.8125 101.15625 80.296875 100.984375 79.871094 101.214844 Z M 81.15625 10.042969 C 80.984375 9.957031 80.8125 9.871094 80.640625 9.757812 C 80.214844 9.527344 79.699219 9.699219 79.46875 10.128906 C 79.242188 10.554688 79.414062 11.070312 79.839844 11.296875 C 80.011719 11.382812 80.183594 11.46875 80.328125 11.554688 C 80.46875 11.613281 80.585938 11.671875 80.726562 11.671875 C 81.042969 11.671875 81.328125 11.5 81.46875 11.214844 C 81.726562 10.785156 81.585938 10.242188 81.15625 10.042969 Z M 85.128906 98.042969 C 84.984375 98.15625 84.8125 98.242188 84.671875 98.355469 C 84.269531 98.613281 84.183594 99.15625 84.441406 99.554688 C 84.613281 99.8125 84.871094 99.925781 85.15625 99.925781 C 85.328125 99.925781 85.5 99.871094 85.640625 99.785156 C 85.8125 99.671875 85.957031 99.554688 86.128906 99.46875 C 86.527344 99.214844 86.613281 98.671875 86.355469 98.269531 C 86.042969 97.871094 85.5 97.757812 85.128906 98.042969 Z M 74.296875 103.726562 C 74.128906 103.785156 73.957031 103.871094 73.785156 103.925781 C 73.328125 104.097656 73.097656 104.585938 73.269531 105.042969 C 73.382812 105.382812 73.726562 105.613281 74.070312 105.613281 C 74.15625 105.613281 74.269531 105.585938 74.355469 105.554688 C 74.527344 105.5 74.726562 105.414062 74.898438 105.355469 C 75.328125 105.183594 75.554688 104.699219 75.382812 104.242188 C 75.242188 103.785156 74.726562 103.554688 74.296875 103.726562 Z M 75.414062 7.355469 C 75.242188 7.296875 75.042969 7.214844 74.871094 7.15625 C 74.441406 6.984375 73.925781 7.214844 73.757812 7.640625 C 73.585938 8.070312 73.8125 8.585938 74.242188 8.757812 C 74.414062 8.8125 74.585938 8.898438 74.757812 8.957031 C 74.871094 8.984375 74.957031 9.011719 75.070312 9.011719 C 75.414062 9.011719 75.726562 8.8125 75.871094 8.46875 C 76.070312 8.042969 75.839844 7.527344 75.414062 7.355469 Z M 75.414062 7.355469 " fill-opacity="1" fill-rule="nonzero"/></g><g fill="#3272ba" fill-opacity="1"><g transform="translate(34.58707, 98.669414)"><g><path d="M 2.6875 -2.9375 L 2.6875 0 L 1.421875 0 L 1.421875 -2.9375 L 0.125 -2.9375 L 0.125 -3.9375 L 3.984375 -3.9375 L 3.984375 -2.9375 Z M 2.6875 -2.9375 "/></g></g></g><g fill="#3272ba" fill-opacity="1"><g transform="translate(38.729554, 98.669414)"><g><path d="M 4.171875 -2.734375 C 4.171875 -2.492188 4.101562 -2.273438 3.96875 -2.078125 C 3.84375 -1.890625 3.65625 -1.75 3.40625 -1.65625 L 4.28125 0 L 2.859375 0 L 2.15625 -1.4375 L 1.6875 -1.4375 L 1.6875 0 L 0.421875 0 L 0.421875 -3.9375 L 2.84375 -3.9375 C 3.125 -3.9375 3.363281 -3.882812 3.5625 -3.78125 C 3.757812 -3.675781 3.910156 -3.53125 4.015625 -3.34375 C 4.117188 -3.15625 4.171875 -2.953125 4.171875 -2.734375 Z M 2.875 -2.6875 C 2.875 -2.789062 2.835938 -2.875 2.765625 -2.9375 C 2.703125 -3.007812 2.617188 -3.046875 2.515625 -3.046875 L 1.6875 -3.046875 L 1.6875 -2.3125 L 2.515625 -2.3125 C 2.617188 -2.3125 2.703125 -2.347656 2.765625 -2.421875 C 2.835938 -2.492188 2.875 -2.582031 2.875 -2.6875 Z M 2.875 -2.6875 "/></g></g></g><g fill="#3272ba" fill-opacity="1"><g transform="translate(43.19334, 98.669414)"><g><path d="M 3.0625 0 L 2.90625 -0.5625 L 1.515625 -0.5625 L 1.359375 0 L 0.0625 0 L 1.5 -3.9375 L 2.96875 -3.9375 L 4.40625 0 Z M 1.78125 -1.4375 L 2.640625 -1.4375 L 2.21875 -2.84375 L 2.203125 -2.84375 Z M 1.78125 -1.4375 "/></g></g></g><g fill="#3272ba" fill-opacity="1"><g transform="translate(47.657126, 98.669414)"><g><path d="M 2.078125 -4.015625 C 2.585938 -4.015625 3.003906 -3.910156 3.328125 -3.703125 C 3.648438 -3.503906 3.816406 -3.203125 3.828125 -2.796875 L 3.828125 -2.734375 L 2.640625 -2.734375 L 2.640625 -2.75 C 2.640625 -2.863281 2.597656 -2.957031 2.515625 -3.03125 C 2.429688 -3.113281 2.300781 -3.15625 2.125 -3.15625 C 1.957031 -3.15625 1.828125 -3.128906 1.734375 -3.078125 C 1.648438 -3.023438 1.609375 -2.960938 1.609375 -2.890625 C 1.609375 -2.785156 1.664062 -2.707031 1.78125 -2.65625 C 1.90625 -2.613281 2.101562 -2.566406 2.375 -2.515625 C 2.695312 -2.453125 2.957031 -2.382812 3.15625 -2.3125 C 3.363281 -2.238281 3.539062 -2.117188 3.6875 -1.953125 C 3.84375 -1.796875 3.925781 -1.582031 3.9375 -1.3125 C 3.9375 -0.84375 3.773438 -0.492188 3.453125 -0.265625 C 3.140625 -0.046875 2.722656 0.0625 2.203125 0.0625 C 1.578125 0.0625 1.09375 -0.0351562 0.75 -0.234375 C 0.414062 -0.441406 0.25 -0.8125 0.25 -1.34375 L 1.4375 -1.34375 C 1.4375 -1.132812 1.488281 -1 1.59375 -0.9375 C 1.695312 -0.875 1.859375 -0.84375 2.078125 -0.84375 C 2.242188 -0.84375 2.378906 -0.859375 2.484375 -0.890625 C 2.585938 -0.921875 2.640625 -0.988281 2.640625 -1.09375 C 2.640625 -1.195312 2.578125 -1.269531 2.453125 -1.3125 C 2.335938 -1.363281 2.148438 -1.414062 1.890625 -1.46875 C 1.566406 -1.539062 1.300781 -1.613281 1.09375 -1.6875 C 0.882812 -1.757812 0.703125 -1.878906 0.546875 -2.046875 C 0.390625 -2.222656 0.3125 -2.457031 0.3125 -2.75 C 0.3125 -3.1875 0.476562 -3.503906 0.8125 -3.703125 C 1.144531 -3.910156 1.566406 -4.015625 2.078125 -4.015625 Z M 2.078125 -4.015625 "/></g></g></g><g fill="#3272ba" fill-opacity="1"><g transform="translate(51.79961, 98.669414)"><g><path d="M 3.078125 0 L 3.078125 -1.5 L 1.6875 -1.5 L 1.6875 0 L 0.421875 0 L 0.421875 -3.9375 L 1.6875 -3.9375 L 1.6875 -2.5 L 3.078125 -2.5 L 3.078125 -3.9375 L 4.359375 -3.9375 L 4.359375 0 Z M 3.078125 0 "/></g></g></g><g fill="#e17930" fill-opacity="1"><g transform="translate(56.577303, 98.669414)"><g><path d="M 3.046875 -3.9375 C 3.242188 -3.9375 3.425781 -3.894531 3.59375 -3.8125 C 3.757812 -3.738281 3.890625 -3.625 3.984375 -3.46875 C 4.085938 -3.320312 4.140625 -3.15625 4.140625 -2.96875 C 4.140625 -2.488281 3.921875 -2.1875 3.484375 -2.0625 L 3.484375 -2.03125 C 3.984375 -1.914062 4.234375 -1.585938 4.234375 -1.046875 C 4.234375 -0.835938 4.179688 -0.65625 4.078125 -0.5 C 3.972656 -0.34375 3.832031 -0.21875 3.65625 -0.125 C 3.488281 -0.0390625 3.296875 0 3.078125 0 L 0.421875 0 L 0.421875 -3.9375 Z M 1.6875 -2.40625 L 2.5625 -2.40625 C 2.644531 -2.40625 2.710938 -2.4375 2.765625 -2.5 C 2.828125 -2.5625 2.859375 -2.632812 2.859375 -2.71875 L 2.859375 -2.78125 C 2.859375 -2.863281 2.828125 -2.929688 2.765625 -2.984375 C 2.710938 -3.046875 2.644531 -3.078125 2.5625 -3.078125 L 1.6875 -3.078125 Z M 1.6875 -0.921875 L 2.65625 -0.921875 C 2.738281 -0.921875 2.804688 -0.945312 2.859375 -1 C 2.921875 -1.0625 2.953125 -1.140625 2.953125 -1.234375 L 2.953125 -1.28125 C 2.953125 -1.375 2.921875 -1.445312 2.859375 -1.5 C 2.804688 -1.5625 2.738281 -1.59375 2.65625 -1.59375 L 1.6875 -1.59375 Z M 1.6875 -0.921875 "/></g></g></g><g fill="#e17930" fill-opacity="1"><g transform="translate(61.041089, 98.669414)"><g><path d="M 4.359375 -1.59375 C 4.359375 -1.050781 4.1875 -0.640625 3.84375 -0.359375 C 3.5 -0.078125 3.015625 0.0625 2.390625 0.0625 C 1.765625 0.0625 1.28125 -0.078125 0.9375 -0.359375 C 0.59375 -0.640625 0.421875 -1.050781 0.421875 -1.59375 L 0.421875 -3.9375 L 1.6875 -3.9375 L 1.6875 -1.609375 C 1.6875 -1.378906 1.742188 -1.195312 1.859375 -1.0625 C 1.984375 -0.9375 2.160156 -0.875 2.390625 -0.875 C 2.609375 -0.875 2.773438 -0.941406 2.890625 -1.078125 C 3.015625 -1.210938 3.078125 -1.390625 3.078125 -1.609375 L 3.078125 -3.9375 L 4.359375 -3.9375 Z M 4.359375 -1.59375 "/></g></g></g><g fill="#e17930" fill-opacity="1"><g transform="translate(65.820436, 98.669414)"><g><path d="M 2.140625 -3.9375 C 3.515625 -3.9375 4.203125 -3.28125 4.203125 -1.96875 C 4.203125 -0.65625 3.515625 0 2.140625 0 L 0.421875 0 L 0.421875 -3.9375 Z M 1.6875 -0.953125 L 2.109375 -0.953125 C 2.640625 -0.953125 2.90625 -1.234375 2.90625 -1.796875 L 2.90625 -2.140625 C 2.90625 -2.710938 2.640625 -3 2.109375 -3 L 1.6875 -3 Z M 1.6875 -0.953125 "/></g></g></g><g fill="#e17930" fill-opacity="1"><g transform="translate(70.284222, 98.669414)"><g><path d="M 2.140625 -3.9375 C 3.515625 -3.9375 4.203125 -3.28125 4.203125 -1.96875 C 4.203125 -0.65625 3.515625 0 2.140625 0 L 0.421875 0 L 0.421875 -3.9375 Z M 1.6875 -0.953125 L 2.109375 -0.953125 C 2.640625 -0.953125 2.90625 -1.234375 2.90625 -1.796875 L 2.90625 -2.140625 C 2.90625 -2.710938 2.640625 -3 2.109375 -3 L 1.6875 -3 Z M 1.6875 -0.953125 "/></g></g></g><g fill="#e17930" fill-opacity="1"><g transform="translate(74.748008, 98.669414)"><g><path d="M 2.875 0 L 1.609375 0 L 1.609375 -1.53125 L 0.046875 -3.9375 L 1.5 -3.9375 L 2.25 -2.625 L 2.28125 -2.625 L 3.03125 -3.9375 L 4.421875 -3.9375 L 2.875 -1.53125 Z M 2.875 0 "/></g></g></g></svg>